<?xml version="1.0" encoding="UTF-8" standalone="no"?>
<svg
   xmlns:dc="http://purl.org/dc/elements/1.1/"
   xmlns:cc="http://creativecommons.org/ns#"
   xmlns:rdf="http://www.w3.org/1999/02/22-rdf-syntax-ns#"
   xmlns:svg="http://www.w3.org/2000/svg"
   xmlns="http://www.w3.org/2000/svg"
   xmlns:sodipodi="http://sodipodi.sourceforge.net/DTD/sodipodi-0.dtd"
   xmlns:inkscape="http://www.inkscape.org/namespaces/inkscape"
   width="500"
   height="300"
   version="1.1"
   id="svg112"
   sodipodi:docname="tabbar.svg"
   inkscape:version="1.0 (4035a4fb49, 2020-05-01)">
  <metadata
     id="metadata116">
    <rdf:RDF>
      <cc:Work
         rdf:about="">
        <dc:format>image/svg+xml</dc:format>
        <dc:type
           rdf:resource="http://purl.org/dc/dcmitype/StillImage" />
        <dc:title />
      </cc:Work>
    </rdf:RDF>
  </metadata>
  <sodipodi:namedview
     pagecolor="#3a3a3a"
     bordercolor="#666666"
     borderopacity="1"
     objecttolerance="10"
     gridtolerance="10"
     guidetolerance="10"
     inkscape:pageopacity="0"
     inkscape:pageshadow="2"
     inkscape:window-width="1237"
     inkscape:window-height="875"
     id="namedview114"
     showgrid="true"
     showguides="true"
     inkscape:guide-bbox="true"
     inkscape:zoom="3.5879893"
     inkscape:cx="279.03973"
     inkscape:cy="150.02767"
     inkscape:window-x="306"
     inkscape:window-y="66"
     inkscape:window-maximized="0"
     inkscape:current-layer="svg112"
     inkscape:snap-bbox="true"
     inkscape:snap-bbox-edge-midpoints="true"
     inkscape:bbox-nodes="true"
     inkscape:document-rotation="0">
    <inkscape:grid
       type="xygrid"
       id="grid943" />
  </sodipodi:namedview>
  <defs
     id="defs3">
    <style
       id="current-color-scheme"
       type="text/css">.ColorScheme-Text {
        color:#31363b;
      }
      .ColorScheme-Background{
        color:#eff0f1;
      }
      .ColorScheme-ViewText {
        color:#31363b;
      }
      .ColorScheme-ViewBackground{
        color:#fcfcfc;
      }
      .ColorScheme-ViewHover {
        color:#3daee9;
      }
      .ColorScheme-ViewFocus{
        color:#3daee9;
      }
      .ColorScheme-ButtonText {
        color:#31363b;
      }
      .ColorScheme-ButtonBackground{
        color:#eff0f1;
      }
      .ColorScheme-ButtonHover {
        color:#3daee9;
      }
      .ColorScheme-ButtonFocus{
        color:#3daee9;
      }</style>
  </defs>
  <g
     id="north-active-tab-top"
     transform="matrix(0.81250094,0,0,1.6666698,290.56249,-1450.2732)">
    <rect
       y="-50.999985"
       x="-916.36218"
       height="32"
       width="6"
       id="rect4152"
       style="color:#eff0f1;opacity:1;fill:#315bef;fill-opacity:1;stroke:none"
       transform="matrix(0,-1,-1,0,0,0)"
       class="ColorScheme-Background" />
  </g>
  <g
     id="north-active-tab-topleft"
     transform="matrix(0.83333453,0,0,0.83333453,283.16668,-691.63644)">
    <path
       id="rect4159"
       style="opacity:1;fill:#315bef;fill-opacity:1;stroke:none;stroke-width:1.66667"
       d="m 294,67 v 10 h 10 V 75.333984 68.666016 67 Z"
       transform="matrix(1.1999983,0,0,1.1999983,-339.79953,829.96254)" />
  </g>
  <g
     id="north-active-tab-topright"
     transform="matrix(0.83333731,0,0,0.83333731,296.49976,-691.63894)">
    <path
       id="rect4177"
       style="opacity:1;fill:#315bef;fill-opacity:1;stroke:none;stroke-width:1.66667"
       d="M 334,67 V 68.666016 75.333984 77 h 10 V 67 Z"
       transform="matrix(1.1999943,0,0,1.1999943,-355.79801,829.96277)" />
  </g>
  <g
     id="north-active-tab-bottom"
     transform="matrix(0.81250094,0,0,1.6666612,290.56249,-1479.5986)">
    <rect
       transform="rotate(90)"
       style="color:#eff0f1;opacity:1;fill:#315bef;fill-opacity:1;stroke:none"
       id="rect4148"
       width="6"
       height="32"
       x="948.36218"
       y="-50.999985"
       class="ColorScheme-Background" />
  </g>
  <g
     id="north-active-tab-bottomleft"
     transform="matrix(0.83333074,0,0,0.83333074,283.16673,-684.29954)">
    <path
       id="path5048"
       style="opacity:1;fill:#315bef;fill-opacity:1;stroke:none;stroke-width:1.66666"
       d="m 294,101 v 10 h 10 V 109.33398 102.66602 101 Z"
       transform="matrix(1.2000037,0,0,1.2000037,-339.80113,821.162)" />
  </g>
  <g
     id="north-active-tab-bottomright"
     transform="matrix(0.83333074,0,0,0.83333074,296.50014,-684.29954)">
    <path
       id="rect4177-6"
       style="opacity:1;fill:#315bef;fill-opacity:1;stroke:none;stroke-width:1.66666"
       d="m 334,101 v 1.66602 6.66796 V 111 h 10 v -10 z"
       transform="matrix(1.2000037,0,0,1.2000037,-355.80128,821.162)" />
  </g>
  <g
     id="north-active-tab-left"
     transform="matrix(1.6666667,0,0,0.62499857,272.33336,-493.72514)">
    <rect
       transform="scale(-1,1)"
       style="color:#eff0f1;opacity:1;fill:#315bef;fill-opacity:1;stroke:none"
       id="rect4144"
       width="5.9999995"
       height="32"
       x="-19.000004"
       y="916.36218"
       class="ColorScheme-Background" />
  </g>
  <g
     id="north-active-tab-right"
     transform="matrix(1.6666578,0,0,0.62499857,249.00051,-493.72514)">
    <rect
       y="916.36218"
       x="50.999985"
       height="32"
       width="5.9999995"
       id="rect4140"
       style="color:#eff0f1;opacity:1;fill:#315bef;fill-opacity:1;stroke:none"
       class="ColorScheme-Background" />
  </g>
  <rect
     class="ColorScheme-Background"
     y="78.999863"
     x="306.00003"
     height="19.999992"
     width="25.999981"
     id="north-active-tab-center"
     style="color:#eff0f1;opacity:1;fill:#315bef;fill-opacity:1;stroke:none;stroke-width:0.712609" />
  <rect
     id="hint-tile-center"
     x="40"
     y="120"
     width="41.362999"
     height="41.120998"
     style="opacity:0.875;fill:#008000" />
  <rect
     id="north-focus-hint-right-margin"
     transform="scale(-1)"
     x="-344.00003"
     y="-89.999863"
     width="18"
     height="2"
     style="fill:#4e9a06;stroke-width:1.09544516" />
  <rect
     id="north-focus-hint-left-margin"
     transform="scale(-1)"
     x="-312.00003"
     y="-89.999863"
     width="18"
     height="2"
     style="fill:#4e9a06;stroke-width:1.09544516" />
  <rect
     id="north-focus-hint-bottom-margin"
     transform="scale(-1)"
     x="-320.00003"
     y="-110.99986"
     width="2"
     height="12"
     style="fill:#4e9a06;stroke-width:0.77459669" />
  <rect
     id="north-focus-hint-top-margin"
     transform="scale(-1)"
     x="-320.00003"
     y="-78.999863"
     width="2"
     height="12"
     style="fill:#4e9a06;stroke-width:1.09544516" />
  <g
     id="south-active-tab-top"
     transform="matrix(0.81250095,0,0,1.6666698,290.56249,-1340.2732)">
    <rect
       y="-50.999985"
       x="-916.36218"
       height="32"
       width="6"
       id="rect4152-3"
       style="color:#eff0f1;opacity:1;fill:#315bef;fill-opacity:1;stroke:none"
       transform="matrix(0,-1,-1,0,0,0)"
       class="ColorScheme-Background" />
  </g>
  <g
     id="south-active-tab-topleft"
     transform="matrix(0.83333454,0,0,0.83333454,283.16668,-581.63644)">
    <path
       id="rect4159-6"
       style="opacity:1;fill:#315bef;fill-opacity:1;stroke:none;stroke-width:1.66667"
       d="m 294,177 v 10 h 10 V 185.33398 178.66602 177 Z"
       transform="matrix(1.1999983,0,0,1.1999983,-339.79952,697.96272)" />
  </g>
  <g
     id="south-active-tab-topright"
     transform="matrix(0.8333373,0,0,0.8333373,296.49976,-581.63884)">
    <path
       id="rect4177-7"
       style="opacity:1;fill:#315bef;fill-opacity:1;stroke:none;stroke-width:1.66667"
       d="m 334,177 v 1.66602 6.66796 V 187 h 10 v -10 z"
       transform="matrix(1.1999943,0,0,1.1999943,-355.79802,697.96329)" />
  </g>
  <g
     id="south-active-tab-bottom"
     transform="matrix(0.81250095,0,0,1.6666612,290.56249,-1369.5987)">
    <rect
       transform="rotate(90)"
       style="color:#eff0f1;opacity:1;fill:#315bef;fill-opacity:1;stroke:none"
       id="rect4148-5"
       width="6"
       height="32"
       x="948.36218"
       y="-50.999985"
       class="ColorScheme-Background" />
  </g>
  <g
     id="south-active-tab-bottomleft"
     transform="matrix(0.83333072,0,0,0.83333072,283.16673,-574.29944)">
    <path
       id="path5048-3"
       style="opacity:1;fill:#315bef;fill-opacity:1;stroke:none;stroke-width:1.66666"
       d="m 294,211 v 10 h 10 V 219.33398 212.66602 211 Z"
       transform="matrix(1.2000038,0,0,1.2000038,-339.80114,689.16149)" />
  </g>
  <g
     id="south-active-tab-bottomright"
     transform="matrix(0.83333072,0,0,0.83333072,296.50014,-574.29944)">
    <path
       id="rect4177-6-5"
       style="opacity:1;fill:#315bef;fill-opacity:1;stroke:none;stroke-width:1.66666"
       d="m 334,211 v 1.66602 6.66796 V 221 h 10 v -10 z"
       transform="matrix(1.2000038,0,0,1.2000038,-355.80128,689.16149)" />
  </g>
  <g
     id="south-active-tab-left"
     transform="matrix(1.6666667,0,0,0.62499855,272.33336,-383.72514)">
    <rect
       transform="scale(-1,1)"
       style="color:#eff0f1;opacity:1;fill:#315bef;fill-opacity:1;stroke:none"
       id="rect4144-6"
       width="5.9999995"
       height="32"
       x="-19.000004"
       y="916.36218"
       class="ColorScheme-Background" />
  </g>
  <g
     id="south-active-tab-right"
     transform="matrix(1.6666578,0,0,0.62499855,249.00051,-383.72514)">
    <rect
       y="916.36218"
       x="50.999985"
       height="32"
       width="5.9999995"
       id="rect4140-2"
       style="color:#eff0f1;opacity:1;fill:#315bef;fill-opacity:1;stroke:none"
       class="ColorScheme-Background" />
  </g>
  <rect
     class="ColorScheme-Background"
     y="188.99986"
     x="306.00003"
     height="19.999992"
     width="25.999983"
     id="south-active-tab-center"
     style="color:#eff0f1;opacity:1;fill:#315bef;fill-opacity:1;stroke:none;stroke-width:0.712609" />
  <rect
     id="south-focus-hint-right-margin"
     transform="scale(-1)"
     x="-344.00003"
     y="-199.99986"
     width="18"
     height="1.9999999"
     style="fill:#4e9a06;stroke-width:1.09544516" />
  <rect
     id="south-focus-hint-left-margin"
     transform="scale(-1)"
     x="-312.00003"
     y="-199.99986"
     width="18"
     height="1.9999999"
     style="fill:#4e9a06;stroke-width:1.09544516" />
  <rect
     id="south-focus-hint-bottom-margin"
     transform="scale(-1)"
     x="-320.00003"
     y="-220.99986"
     width="1.9999999"
     height="12"
     style="fill:#4e9a06;stroke-width:0.77459669" />
  <rect
     id="south-focus-hint-top-margin"
     transform="scale(-1)"
     x="-320.00003"
     y="-188.99986"
     width="1.9999999"
     height="12"
     style="fill:#4e9a06;stroke-width:1.09544516" />
  <g
     id="west-active-tab-top"
     transform="matrix(0.81250095,0,0,1.6666698,209.56249,-1392.2732)">
    <rect
       y="-50.999985"
       x="-916.36218"
       height="32"
       width="6"
       id="rect4152-9"
       style="color:#eff0f1;opacity:1;fill:#315bef;fill-opacity:1;stroke:none"
       transform="matrix(0,-1,-1,0,0,0)"
       class="ColorScheme-Background" />
  </g>
  <g
     id="west-active-tab-topleft"
     transform="matrix(0.83333454,0,0,0.83333454,202.16668,-633.63644)">
    <path
       id="rect4159-1"
       style="opacity:1;fill:#315bef;fill-opacity:1;stroke:none;stroke-width:1.66667"
       d="m 213,125 v 10 h 10 V 133.33398 126.66602 125 Z"
       transform="matrix(1.1999983,0,0,1.1999983,-242.59966,760.36263)" />
  </g>
  <g
     id="west-active-tab-topright"
     transform="matrix(0.8333373,0,0,0.8333373,215.49976,-633.63884)">
    <path
       id="rect4177-2"
       style="opacity:1;fill:#315bef;fill-opacity:1;stroke:none;stroke-width:1.66667"
       d="m 253,125 v 1.66602 6.66796 V 135 h 10 v -10 z"
       transform="matrix(1.1999943,0,0,1.1999943,-258.59848,760.36299)" />
  </g>
  <g
     id="west-active-tab-bottom"
     transform="matrix(0.81250095,0,0,1.6666612,209.56249,-1421.5987)">
    <rect
       transform="rotate(90)"
       style="color:#eff0f1;opacity:1;fill:#315bef;fill-opacity:1;stroke:none"
       id="rect4148-7"
       width="6"
       height="32"
       x="948.36218"
       y="-50.999985"
       class="ColorScheme-Background" />
  </g>
  <g
     id="west-active-tab-bottomleft"
     transform="matrix(0.83333072,0,0,0.83333072,202.16673,-626.29944)">
    <path
       id="path5048-0"
       style="opacity:1;fill:#315bef;fill-opacity:1;stroke:none;stroke-width:1.66666"
       d="m 213,159 v 10 h 10 V 167.33398 160.66602 159 Z"
       transform="matrix(1.2000038,0,0,1.2000038,-242.60084,751.56168)" />
  </g>
  <g
     id="west-active-tab-bottomright"
     transform="matrix(0.83333072,0,0,0.83333072,215.50014,-626.29944)">
    <path
       id="rect4177-6-9"
       style="opacity:1;fill:#315bef;fill-opacity:1;stroke:none;stroke-width:1.66666"
       d="m 253,159 v 1.66602 6.66796 V 169 h 10 v -10 z"
       transform="matrix(1.2000038,0,0,1.2000038,-258.60098,751.56168)" />
  </g>
  <g
     id="west-active-tab-left"
     transform="matrix(1.6666667,0,0,0.62499855,191.33336,-435.72514)">
    <rect
       transform="scale(-1,1)"
       style="color:#eff0f1;opacity:1;fill:#315bef;fill-opacity:1;stroke:none"
       id="rect4144-3"
       width="5.9999995"
       height="32"
       x="-19.000004"
       y="916.36218"
       class="ColorScheme-Background" />
  </g>
  <g
     id="west-active-tab-right"
     transform="matrix(1.6666578,0,0,0.62499855,168.00051,-435.72514)">
    <rect
       y="916.36218"
       x="50.999985"
       height="32"
       width="5.9999995"
       id="rect4140-6"
       style="color:#eff0f1;opacity:1;fill:#315bef;fill-opacity:1;stroke:none"
       class="ColorScheme-Background" />
  </g>
  <rect
     class="ColorScheme-Background"
     y="136.99986"
     x="225.00005"
     height="19.999992"
     width="25.999983"
     id="west-active-tab-center"
     style="color:#eff0f1;opacity:1;fill:#315bef;fill-opacity:1;stroke:none;stroke-width:0.712609" />
  <rect
     id="west-focus-hint-right-margin"
     transform="scale(-1)"
     x="-263.00003"
     y="-147.99986"
     width="12"
     height="1.9999999"
     style="fill:#4e9a06;stroke-width:0.89442724" />
  <rect
     id="west-focus-hint-left-margin"
     transform="scale(-1)"
     x="-225.00005"
     y="-147.99986"
     width="11.999985"
     height="1.9999999"
     style="fill:#4e9a06;stroke-width:0.89442664" />
  <rect
     id="west-focus-hint-bottom-margin"
     transform="scale(-1)"
     x="-239.00005"
     y="-168.99986"
     width="1.9999999"
     height="12"
     style="fill:#4e9a06;stroke-width:0.77459669" />
  <rect
     id="west-focus-hint-top-margin"
     transform="scale(-1)"
     x="-239.00005"
     y="-136.99986"
     width="1.9999999"
     height="12"
     style="fill:#4e9a06;stroke-width:1.09544516" />
  <g
     id="east-active-tab-top"
     transform="matrix(0.81250095,0,0,1.6666698,373.56248,-1394.2731)">
    <rect
       y="-50.999985"
       x="-916.36218"
       height="32"
       width="6"
       id="rect4152-0"
       style="color:#eff0f1;opacity:1;fill:#315bef;fill-opacity:1;stroke:none"
       transform="matrix(0,-1,-1,0,0,0)"
       class="ColorScheme-Background" />
  </g>
  <g
     id="east-active-tab-topleft"
     transform="matrix(0.83333454,0,0,0.83333454,366.16667,-635.63632)">
    <path
       id="rect4159-62"
       style="opacity:1;fill:#315bef;fill-opacity:1;stroke:none;stroke-width:1.66667"
       d="m 377,123 v 10 h 10 V 131.33398 124.66602 123 Z"
       transform="matrix(1.1999983,0,0,1.1999983,-439.39937,762.76248)" />
  </g>
  <g
     id="east-active-tab-topright"
     transform="matrix(0.8333373,0,0,0.8333373,379.49975,-635.63882)">
    <path
       id="rect4177-61"
       style="opacity:1;fill:#315bef;fill-opacity:1;stroke:none;stroke-width:1.66667"
       d="m 417,123 v 1.66602 6.66796 V 133 h 10 v -10 z"
       transform="matrix(1.1999943,0,0,1.1999943,-455.39753,762.76295)" />
  </g>
  <g
     id="east-active-tab-bottom"
     transform="matrix(0.81250095,0,0,1.6666612,373.56248,-1423.5986)">
    <rect
       transform="rotate(90)"
       style="color:#eff0f1;opacity:1;fill:#315bef;fill-opacity:1;stroke:none"
       id="rect4148-8"
       width="6"
       height="32"
       x="948.36218"
       y="-50.999985"
       class="ColorScheme-Background" />
  </g>
  <g
     id="east-active-tab-bottomleft"
     transform="matrix(0.83333072,0,0,0.83333072,366.16672,-628.29932)">
    <path
       id="path5048-7"
       style="opacity:1;fill:#315bef;fill-opacity:1;stroke:none;stroke-width:1.66666"
       d="m 377,157 v 10 h 10 V 165.33398 158.66602 157 Z"
       transform="matrix(1.2000038,0,0,1.2000038,-439.40144,753.96155)" />
  </g>
  <g
     id="east-active-tab-bottomright"
     transform="matrix(0.83333072,0,0,0.83333072,379.50013,-628.29932)">
    <path
       id="rect4177-6-92"
       style="opacity:1;fill:#315bef;fill-opacity:1;stroke:none;stroke-width:1.66666"
       d="m 417,157 v 1.66602 6.66796 V 167 h 10 v -10 z"
       transform="matrix(1.2000038,0,0,1.2000038,-455.40158,753.96155)" />
  </g>
  <g
     id="east-active-tab-left"
     transform="matrix(1.6666667,0,0,0.62499855,355.33335,-437.72502)">
    <rect
       transform="scale(-1,1)"
       style="color:#eff0f1;opacity:1;fill:#315bef;fill-opacity:1;stroke:none"
       id="rect4144-0"
       width="5.9999995"
       height="32"
       x="-19.000004"
       y="916.36218"
       class="ColorScheme-Background" />
  </g>
  <g
     id="east-active-tab-right"
     transform="matrix(1.6666578,0,0,0.62499855,332.0005,-437.72502)">
    <rect
       y="916.36218"
       x="50.999985"
       height="32"
       width="5.9999995"
       id="rect4140-23"
       style="color:#eff0f1;opacity:1;fill:#315bef;fill-opacity:1;stroke:none"
       class="ColorScheme-Background" />
  </g>
  <rect
     class="ColorScheme-Background"
     y="134.99998"
     x="389.00003"
     height="19.999992"
     width="25.999983"
     id="east-active-tab-center"
     style="color:#eff0f1;opacity:1;fill:#315bef;fill-opacity:1;stroke:none;stroke-width:0.712609" />
  <rect
     id="east-focus-hint-right-margin"
     transform="scale(-1)"
     x="-427.00003"
     y="-145.99998"
     width="12"
     height="1.9999999"
     style="fill:#4e9a06;stroke-width:0.89442724" />
  <rect
     id="east-focus-hint-left-margin"
     transform="scale(-1)"
     x="-389.00003"
     y="-145.99998"
     width="12"
     height="1.9999999"
     style="fill:#4e9a06;stroke-width:0.89442724" />
  <rect
     id="east-focus-hint-bottom-margin"
     transform="scale(-1)"
     x="-403.00003"
     y="-166.99998"
     width="1.9999999"
     height="12"
     style="fill:#4e9a06;stroke-width:0.77459669" />
  <rect
     id="east-focus-hint-top-margin"
     transform="scale(-1)"
     x="-403.00003"
     y="-134.99998"
     width="1.9999999"
     height="12"
     style="fill:#4e9a06;stroke-width:1.09544516" />
</svg>
