<?xml version="1.0" encoding="utf-8"?>
<!-- Generator: Adobe Illustrator 22.0.1, SVG Export Plug-In . SVG Version: 6.00 Build 0)  -->
<svg version="1.1" id="be_x5F_appicon_x5F_RGB" xmlns="http://www.w3.org/2000/svg" xmlns:xlink="http://www.w3.org/1999/xlink"
	 x="0px" y="0px" width="240px" height="234px" viewBox="0 0 240 234" style="enable-background:new 0 0 240 234;"
	 xml:space="preserve">
<rect style="fill:#FBB500;" width="240" height="234"/>
<rect x="10" y="10" style="fill:#261C00;" width="220" height="214"/>
<path style="fill:#FBB500;" d="M64,58.6c0-0.8,0.2-1.1,0.8-1.3c4.5-0.2,17-0.5,26.8-0.5c29.8,0,35.1,17.4,35.1,27.9
	c0,11.9-5.8,18.7-10,22.1c6,2.9,14.8,10.3,14.8,25.6c0,20.3-16.3,32.7-41.1,32.5c-10.6,0-20.2-0.2-25.3-0.3
	c-0.8-0.2-1.1-0.6-1.1-1.3C64,163.2,64,58.6,64,58.6z M81,101h9.8c4.7,0,10.4-0.3,12.7,0.2c3.4-2.9,6.1-7.2,6.1-14.2
	c0-10-7.1-15-18.5-15c-3.9,0-7.6,0.2-10.1,0.3V101z M81,149.6c2.9,0.2,5.6,0,9.2,0c12.7,0,23.3-4.8,23.3-17.1
	c0-7.6-3.9-12.9-11.8-15.3c-2.7-0.8-6-1.3-9.5-1.3H81V149.6z M147,101.4c0-1.1,0-4-0.5-9.5c0-0.8,0.3-1,0.9-1.3
	c6-2.4,19.6-6.8,35.4-6.8c0.8,0,1.1,0.2,1.1,1V99c0,0.8,0,1-0.8,1c-6.1-0.3-14.8,0.5-18.2,1.9v62c0,0.8-0.3,1.1-1.1,1.1h-15.7
	c-0.8,0-1.1-0.3-1.1-1.1L147,101.4L147,101.4z"/>
</svg>
