<svg xmlns="http://www.w3.org/2000/svg" enable-background="new 0 0 512 512" version="1" viewBox="0 0 512 512"><path fill="#00DBFF" d="M93.867,12.8h326.016C470.547,12.8,512,54.253,512,104.918v314.965C512,470.547,470.547,512,419.883,512
			H92.118C41.453,512,0,470.547,0,419.882V106.667C0,54.933,42.134,12.8,93.867,12.8"/><path fill="#002026" d="M98.133,34.133h317.482c41.45,0,75.051,33.601,75.051,75.051v306.431c0,41.45-33.602,75.051-75.051,75.051
			H96.384c-41.45,0-75.051-33.601-75.051-75.051V110.933C21.333,68.267,55.466,34.133,98.133,34.133"/><g><path fill="#FFF" d="M130.971,147.248c0-1.479,0.423-2.535,2.113-2.535c13.522-0.634,33.171-1.056,54.088-1.056
			c58.525,0,84.09,32.115,84.09,73.315c0,53.666-38.665,76.695-86.414,76.695c-8.029,0-10.775-0.423-16.48-0.423v81.344
			c0,1.69-0.634,2.535-2.535,2.535h-32.326c-1.69,0-2.535-0.634-2.535-2.535V147.248z M168.579,259.439
			c4.859,0.423,8.663,0.423,17.114,0.423c24.72,0,47.75-8.663,47.75-42.256c0-26.833-16.269-40.355-44.581-40.355
			c-8.451,0-16.48,0.423-20.283,0.634V259.439z M308.448,146.826c0-1.479,0.423-2.113,2.535-2.113h32.749
			c2.113,0,2.747,0.634,2.747,2.113v189.731c0,8.451,3.169,11.409,9.508,11.409c2.747,0,4.014-0.423,5.705-0.634
			c1.479,0,1.69,0.423,1.69,2.113v24.72c0,2.113-0.423,2.747-1.69,3.381c-4.437,1.69-10.987,2.535-18.382,2.535
			c-18.382,0-34.862-6.972-34.862-40.355V146.826L308.448,146.826z"/><path fill="#00DBFF" d="M130.971,147.248c0-1.479,0.423-2.535,2.113-2.535c13.522-0.634,33.171-1.056,54.088-1.056
				c58.525,0,84.09,32.115,84.09,73.315c0,53.666-38.665,76.695-86.414,76.695c-8.029,0-10.775-0.423-16.48-0.423v81.344
				c0,1.69-0.634,2.535-2.535,2.535h-32.326c-1.69,0-2.535-0.634-2.535-2.535V147.248z M168.579,259.439
				c4.859,0.423,8.663,0.423,17.114,0.423c24.72,0,47.75-8.663,47.75-42.256c0-26.833-16.269-40.355-44.581-40.355
				c-8.451,0-16.48,0.423-20.283,0.634V259.439z M308.448,146.826c0-1.479,0.423-2.113,2.535-2.113h32.749
				c2.113,0,2.747,0.634,2.747,2.113v189.731c0,8.451,3.169,11.409,9.508,11.409c2.747,0,4.014-0.423,5.705-0.634
				c1.479,0,1.69,0.423,1.69,2.113v24.72c0,2.113-0.423,2.747-1.69,3.381c-4.437,1.69-10.987,2.535-18.382,2.535
				c-18.382,0-34.862-6.972-34.862-40.355V146.826L308.448,146.826z" opacity=".15"/></g></svg>