<?xml version="1.0" encoding="UTF-8" standalone="no"?>
<svg
   xmlns:dc="http://purl.org/dc/elements/1.1/"
   xmlns:cc="http://creativecommons.org/ns#"
   xmlns:rdf="http://www.w3.org/1999/02/22-rdf-syntax-ns#"
   xmlns:svg="http://www.w3.org/2000/svg"
   xmlns="http://www.w3.org/2000/svg"
   xmlns:sodipodi="http://sodipodi.sourceforge.net/DTD/sodipodi-0.dtd"
   xmlns:inkscape="http://www.inkscape.org/namespaces/inkscape"
   width="64"
   height="64"
   version="1.1"
   viewBox="0 0 16.933 16.933"
   id="svg10"
   sodipodi:docname="freeoffice-presentations.svg"
   inkscape:version="1.0.1 (3bc2e813f5, 2020-09-07)">
  <metadata
     id="metadata16">
    <rdf:RDF>
      <cc:Work
         rdf:about="">
        <dc:format>image/svg+xml</dc:format>
        <dc:type
           rdf:resource="http://purl.org/dc/dcmitype/StillImage" />
        <dc:title></dc:title>
      </cc:Work>
    </rdf:RDF>
  </metadata>
  <defs
     id="defs14" />
  <sodipodi:namedview
     pagecolor="#ffffff"
     bordercolor="#666666"
     borderopacity="1"
     objecttolerance="10"
     gridtolerance="10"
     guidetolerance="10"
     inkscape:pageopacity="0"
     inkscape:pageshadow="2"
     inkscape:window-width="1919"
     inkscape:window-height="965"
     id="namedview12"
     showgrid="false"
     inkscape:zoom="45.421759"
     inkscape:cx="29.548273"
     inkscape:cy="25.971134"
     inkscape:window-x="-1"
     inkscape:window-y="28"
     inkscape:window-maximized="0"
     inkscape:current-layer="layer3"
     inkscape:document-rotation="0" />
  <g
     inkscape:groupmode="layer"
     id="layer2"
     inkscape:label="fjh"
     style="display:inline;opacity:1">
    <rect
       style="opacity:1;fill:#d79645;stroke:#d79645;stroke-width:0.270189"
       id="rect50"
       width="14.40653"
       height="14.169469"
       x="1.3417922"
       y="1.3534862"
       ry="0" />
  </g>
  <g
     inkscape:groupmode="layer"
     id="layer3"
     inkscape:label="blanco">
    <rect
       style="fill:#ffffff;stroke:#ffffff;stroke-width:0.264578"
       id="rect73"
       width="1.3602496"
       height="1.3322932"
       x="2.2740722"
       y="13.330482" />
    <rect
       style="fill:#ffffff;stroke:#ffffff;stroke-width:0.227706"
       id="rect75"
       width="0.34217528"
       height="10.401009"
       x="2.2718449"
       y="2.2976809" />
    <rect
       style="fill:#ffffff;stroke:#ffffff;stroke-width:0.248152"
       id="rect75-3"
       width="0.34217528"
       height="12.352768"
       x="14.419757"
       y="2.3079038" />
    <rect
       style="fill:#ffffff;stroke:#ffffff;stroke-width:0.240198"
       id="rect75-6"
       width="0.34093449"
       height="11.615568"
       x="2.3039837"
       y="-14.419757"
       transform="rotate(90)" />
    <rect
       style="fill:#ffffff;stroke:#ffffff;stroke-width:0.228933"
       id="rect75-7"
       width="0.36272311"
       height="9.9178562"
       x="14.320885"
       y="-14.333492"
       transform="rotate(90)" />
    <path
       style="opacity:1;fill:#ffffff;stroke:#ff0000;stroke-width:0.007172"
       d="m 9.1578987,4.8509633 c -0.037402,0.02482 -0.075275,0.053633 -0.1234871,0.046172 -0.058111,0.00185 -0.1223912,0.010191 -0.169932,-0.031534 -0.06345,-0.049116 -0.1660609,-0.013327 -0.1805352,0.066873 -0.031484,0.01683 -0.078334,0.013943 -0.1155595,0.019431 -0.2057032,0.014565 -0.4204771,0.00844 -0.6290189,0.02564 -0.051246,0.00948 -0.087052,0.053255 -0.1083289,0.09806 -0.1035508,0.049619 -0.2338405,-0.00498 -0.3312706,0.066089 -0.03003,0.022465 -0.050062,0.056682 -0.057656,0.09318 -0.075613,-0.00236 -0.1552156,0.00618 -0.2148237,0.057866 -0.029976,0.017343 -0.044965,0.055252 -0.06008,0.07941 -0.074166,-0.00947 -0.1485678,0.050371 -0.1443364,0.1267147 -0.064722,0.00382 -0.1293946,0.045495 -0.133822,0.1149835 0.00212,0.033886 -0.045669,0.015266 -0.063324,0.035376 -0.045926,0.022225 -0.068554,0.074667 -0.07899,0.1188842 -0.076134,0.00332 -0.1273134,0.076359 -0.1341107,0.1448408 -0.091462,0.016975 -0.132465,0.1141215 -0.1327545,0.1983682 -0.00773,0.025021 0.011962,0.074473 -0.029232,0.069195 -0.086982,0.019536 -0.1114318,0.117187 -0.1078301,0.1946322 0.0018,0.1312045 -0.00576,0.2620715 -0.022947,0.392118 -0.018467,0.2066763 -0.00583,0.4144119 0.015644,0.6201904 0.00982,0.1013838 -0.00582,0.2089586 0.032904,0.3052304 0.019819,0.040534 0.062657,0.06756 0.1075518,0.069437 0.00422,0.090547 0.00944,0.2073835 0.1048486,0.2506976 0.034605,0.00384 0.042404,0.025056 0.044839,0.056676 0.012369,0.058998 0.073982,0.088669 0.1258321,0.097803 0.00143,0.07441 0.068757,0.1294147 0.1394337,0.1360578 0.019822,0.069876 0.08652,0.1148054 0.1521949,0.1331862 0.058941,0.080425 0.1557897,0.1260016 0.2505716,0.1494073 0.055427,0.079723 0.1588908,0.1001687 0.2399399,0.1444345 0.3377305,0.1455979 0.6990098,0.2081949 1.0421875,0.3360325 0.2161508,0.080832 0.4433407,0.1589291 0.6299365,0.3016791 0.1317972,0.121993 0.2562836,0.2670511 0.3014498,0.4450498 0.040959,0.1800634 0.0067,0.3654615 -0.017944,0.5452815 -0.060415,0.02535 -0.1070751,0.08369 -0.1215038,0.146802 -0.066511,0.01152 -0.122478,0.06547 -0.1335503,0.1325 -0.065841,-0.0052 -0.1353325,0.03409 -0.1424269,0.104155 0.00204,0.04278 -0.053576,0.02181 -0.081321,0.02915 -0.074643,-7.67e-4 -0.1706813,0.0079 -0.2011234,0.08937 -6.35e-4,0.03613 -0.03201,0.03576 -0.060836,0.03709 -0.322325,0.01902 -0.6452444,0.0093 -0.9671474,0.0034 -0.1903367,-0.004 -0.3841841,-0.02064 -0.5606842,-0.09768 -0.056356,-0.02426 -0.1187179,-0.03219 -0.1679969,-0.0708 -0.085257,-0.04744 -0.1732045,-0.100029 -0.2739748,-0.10003 -0.025127,-0.0123 -0.056456,-0.01171 -0.059827,-0.04592 -0.033816,-0.08313 -0.1621697,-0.109755 -0.2139313,-0.02953 -0.035248,0.04771 -0.01797,0.112698 -0.052553,0.160738 -0.046647,0.146316 -0.088032,0.295661 -0.1100455,0.447801 -0.00827,0.06947 -0.010189,0.144681 -0.050904,0.203996 -0.028726,0.08378 -0.062846,0.171443 -0.05811,0.261161 0.016232,0.08935 0.1188911,0.100684 0.188731,0.128181 0.3104969,0.104148 0.6262445,0.195031 0.9476831,0.258445 0.3614405,0.05741 0.7280531,0.0817 1.0939268,0.0727 0.239783,-0.0066 0.4823224,-0.0011 0.7188126,-0.04669 0.056984,-0.01201 0.1133453,-0.03616 0.1533294,-0.07895 0.1202288,-0.02863 0.2472062,-0.0056 0.3669344,-0.03372 0.03697,-0.01793 0.050791,-0.05722 0.065921,-0.09051 0.035873,-0.01513 0.067841,-0.03825 0.109261,-0.03212 0.067181,0.0096 0.1369517,-0.03137 0.1464627,-0.101505 0.01654,-0.02442 0.05951,-0.02273 0.08719,-0.0309 0.06188,-0.0025 0.141265,-0.01104 0.161097,-0.08149 -0.0026,-0.05576 0.03066,-0.05477 0.0776,-0.06084 0.04889,-0.0213 0.06893,-0.07488 0.07117,-0.124578 0.06359,-0.0023 0.130803,-0.03955 0.136017,-0.108788 -0.0071,-0.03873 0.0415,-0.02028 0.06239,-0.03853 0.05161,-0.02396 0.07811,-0.08207 0.07714,-0.136995 0.07479,-0.04936 0.0811,-0.149876 0.113371,-0.226248 0.07825,-0.229648 0.143675,-0.466251 0.152189,-0.710146 C 10.98085,9.8896059 10.99018,9.5765258 10.86424,9.2978952 10.787532,9.110249 10.664485,8.9459859 10.522096,8.803036 10.307566,8.574958 10.059089,8.3775181 9.7848821,8.2260284 9.5519859,8.1152199 9.3027708,8.0440769 9.0644378,7.9462333 8.8449304,7.8591903 8.6198586,7.7722372 8.4300679,7.6328 8.3317827,7.5689087 8.2456594,7.4887664 8.1515616,7.4196029 8.1290778,7.3967354 8.0769292,7.4100357 8.0811725,7.367872 8.0672821,7.3069664 8.0101896,7.2638285 7.9490789,7.2589614 7.947174,7.1906468 7.9106556,7.1187289 7.8392015,7.1027182 7.8065875,7.0629282 7.8151455,7.0000804 7.8115645,6.9499492 7.8141545,6.8560492 7.8033745,6.7578877 7.8194945,6.666445 7.8786305,6.603631 7.8991335,6.5163133 7.9455918,6.4449256 7.9896308,6.3727046 8.0574139,6.3164185 8.1171874,6.2566608 8.2503096,6.1429137 8.4282561,6.1058995 8.5953435,6.0737696 c 0.3289374,0.00484 0.6629041,-0.00453 0.9877468,0.035305 0.2099094,0.023471 0.4131929,0.1014395 0.6147477,0.1671893 0.06978,0.015335 0.14505,0.061146 0.21589,0.029095 0.07184,-0.037646 0.07529,-0.1294948 0.103597,-0.1968437 0.04288,-0.1072843 0.039,-0.2236402 0.05689,-0.335782 0.01356,-0.035291 0.06224,-0.042664 0.07332,-0.082688 0.0662,-0.1454572 0.05229,-0.3105158 0.04534,-0.4658438 3.18e-4,-0.072779 -0.06777,-0.1276627 -0.13837,-0.1216602 -0.09143,-0.00635 -0.184155,0.00346 -0.274663,-0.013613 -0.002,-0.070279 -0.06675,-0.1240352 -0.136126,-0.1152866 C 9.876528,4.9628916 9.6069409,4.9622996 9.342072,4.9474776 9.297282,4.9471337 9.308465,4.8820466 9.271218,4.8661116 9.240135,4.8378796 9.195652,4.8371206 9.1578968,4.8509646 Z m 1.4002203,0.9088685 c -0.01099,0.0018 0.0094,-0.00212 0,0 z"
       id="path47" />
    <path
       style="opacity:1;fill:none;stroke:#ffffff;stroke-width:0.264578px;stroke-linecap:butt;stroke-linejoin:miter;stroke-opacity:1"
       d="M 10.633362,8.8465447 C 10.495947,8.6784317 10.205706,8.4069206 9.8674399,8.2117595 9.65116,8.0808791 9.2833043,8.0077082 8.7063541,7.7395873 8.499375,7.6409981 8.1828363,7.3949571 8.0889465,7.2643307 7.9317716,7.0955017 7.8805772,7.046562 7.8721151,6.8182047 7.8789123,6.5034361 8.0799477,6.3288656 8.1594027,6.2561742 8.2734098,6.139673 8.6033177,6.0789524 8.6871021,6.0818372 c 0.6717263,0.010875 0.6362776,0.00654 0.946188,0.040245 0.1820382,0.032146 0.2924334,0.063648 0.5484439,0.158016 l 0.29554,0.085425 0.401682,-1.2465458 C 10.432365,4.9379653 9.9104661,4.8255601 9.3076206,4.7868981 8.8995422,4.7674317 8.4817075,4.8198179 8.0596365,4.9034036 7.7735694,4.9756384 7.4999352,5.0760723 7.2531061,5.2373034 6.8943476,5.4441011 6.5690221,5.777765 6.3477757,6.2388842 6.2159849,6.5012758 6.261318,6.7636673 6.2362738,7.0260589 c 0.015042,0.3019094 0.051085,0.5399313 0.1952113,0.815051 0.2300413,0.3348504 0.4243472,0.5134504 0.8387253,0.7694748 0.3844837,0.204742 0.6992973,0.281211 1.0586974,0.376177 0.3044295,0.108238 0.619408,0.200092 0.8768359,0.381333 0.1668917,0.165757 0.3112876,0.327062 0.3151303,0.591823 -0.00249,0.2394803 -0.041859,0.4014963 -0.2728996,0.5783753 -0.243655,0.162306 -0.3783327,0.241172 -0.8025981,0.269402 -0.2990267,0.03701 -0.6850463,0.07772 -0.9913739,0.01856 -0.326643,-0.07635 -0.6267026,-0.288633 -0.9413703,-0.435015 l -0.3529056,1.414219"
       id="path45"
       sodipodi:nodetypes="cccccccccccccccccccccccccc" />
    <path
       style="opacity:1;fill:none;stroke:#ffffff;stroke-width:0.264578px;stroke-linecap:butt;stroke-linejoin:miter;stroke-opacity:1"
       d="m 6.0853207,11.616533 c 0.3408807,0.156451 0.8622936,0.29908 1.2325476,0.378856 0.585931,0.104297 1.576762,0.116854 1.929323,0.01431 0.63983,-0.10046 0.9400197,-0.252292 1.1788567,-0.484443 0.278877,-0.234349 0.347917,-0.47903 0.464313,-0.855266 0.09959,-0.307107 0.09718,-0.595554 0.104542,-0.8693257 C 10.983373,9.3010347 10.781759,8.9848218 10.522618,8.726423"
       id="path43"
       sodipodi:nodetypes="ccccccc" />
    <rect
       style="fill:#ffffff;stroke:#ffffff;stroke-width:0.264578"
       id="rect96"
       width="1.8517604"
       height="0.19386151"
       x="8.1246672"
       y="4.9490805" />
    <rect
       style="fill:#ffffff;stroke:#ffffff;stroke-width:0.264578"
       id="rect98"
       width="0.62786055"
       height="0.31036666"
       x="9.9914045"
       y="5.1640229" />
  </g>
</svg>
