<?xml version="1.0" encoding="UTF-8" standalone="no"?>
<svg
   xmlns:dc="http://purl.org/dc/elements/1.1/"
   xmlns:cc="http://creativecommons.org/ns#"
   xmlns:rdf="http://www.w3.org/1999/02/22-rdf-syntax-ns#"
   xmlns:svg="http://www.w3.org/2000/svg"
   xmlns="http://www.w3.org/2000/svg"
   xmlns:sodipodi="http://sodipodi.sourceforge.net/DTD/sodipodi-0.dtd"
   xmlns:inkscape="http://www.inkscape.org/namespaces/inkscape"
   height="2500"
   viewBox="13.38 3.2 485.44 505.7"
   width="2349"
   version="1.1"
   id="svg6"
   sodipodi:docname="notion-2.svg"
   inkscape:version="1.0.1 (3bc2e813f5, 2020-09-07)">
  <metadata
     id="metadata12">
    <rdf:RDF>
      <cc:Work
         rdf:about="">
        <dc:format>image/svg+xml</dc:format>
        <dc:type
           rdf:resource="http://purl.org/dc/dcmitype/StillImage" />
      </cc:Work>
    </rdf:RDF>
  </metadata>
  <defs
     id="defs10" />
  <sodipodi:namedview
     pagecolor="#ffffff"
     bordercolor="#666666"
     borderopacity="1"
     objecttolerance="10"
     gridtolerance="10"
     guidetolerance="10"
     inkscape:pageopacity="0"
     inkscape:pageshadow="2"
     inkscape:window-width="1584"
     inkscape:window-height="850"
     id="namedview8"
     showgrid="false"
     inkscape:snap-grids="true"
     inkscape:zoom="0.3112"
     inkscape:cx="1174.5"
     inkscape:cy="991.32391"
     inkscape:window-x="185"
     inkscape:window-y="88"
     inkscape:window-maximized="0"
     inkscape:current-layer="svg6" />
  <path
     d="m186.84 13.95c-79.06 5.85-146.27 11.23-149.43 11.86-8.86 1.58-16.92 7.59-20.71 15.5l-3.32 6.96.32 165.88.47 165.88 5.06 10.28c2.85 5.69 22.14 32.26 43.17 59.61 41.59 53.92 44.59 56.93 60.4 58.51 4.59.47 39.06-1.11 76.38-3.32 37.48-2.37 97.56-6.01 133.62-8.06 154.01-9.35 146.1-8.56 154.95-16.15 11.07-9.17 10.28 5.85 10.75-195.76.32-170.94.16-182.16-2.37-187.38-3-5.85-8.38-9.96-78.59-59.3-46.96-32.89-50.28-34.63-71.32-34.95-8.69-.31-80.48 4.43-159.38 10.44zm177.73 21.66c6.64 3 55.19 36.84 62.3 43.33 1.9 1.9 2.53 3.48 1.58 4.43-2.21 1.9-302.66 19.77-311.35 18.5-3.95-.63-9.8-3-13.12-5.22-13.76-9.33-47.91-37.32-47.91-39.37 0-5.38-1.11-5.38 132.83-15.02 25.62-1.74 67.68-4.9 93.3-6.96 55.49-4.43 72.1-4.27 82.37.31zm95.51 86.5c2.21 2.21 4.11 6.48 4.74 10.59.47 3.8.79 74.64.47 157.18-.47 141.68-.63 150.54-3.32 154.65-1.58 2.53-4.74 5.22-7.12 6.01-6.63 2.69-321.46 20.56-327.94 18.66-3-.79-7.12-3.32-9.33-5.53l-3.8-4.11-.47-152.75c-.32-107.21 0-154.65 1.27-158.92.95-3.16 3.32-6.96 5.38-8.22 2.85-1.9 21.51-3.48 85.71-7.27 45.07-2.53 114.8-6.8 154.81-9.17 95.17-5.86 94.86-5.86 99.6-1.12z"
     id="path2" />
  <path
     d="m375.48 174.45c-17.08 1.11-32.26 2.69-34 3.64-5.22 2.69-8.38 7.12-9.01 12.18-.47 5.22 1.11 5.85 18.18 7.91l7.43.95v67.52c0 40.16-.63 66.73-1.42 65.94-.79-.95-23.24-35.1-49.97-75.9-26.72-40.95-48.86-74.64-49.18-74.95-.32-.32-17.71.63-38.58 2.06-25.62 1.74-39.69 3.32-42.54 4.9-4.59 2.37-9.65 10.75-9.65 16.29 0 3.32 6.01 5.06 18.66 5.06h6.64v194.18l-10.75 3.32c-8.38 2.53-11.23 4.11-12.65 7.27-2.53 5.38-2.37 10.28.16 10.28.95 0 18.82-1.11 39.37-2.37 40.64-2.37 45.22-3.48 49.49-11.86 1.27-2.53 2.37-5.22 2.37-6.01 0-.63-5.53-2.53-12.18-4.11-6.8-1.58-13.6-3.16-15.02-3.48-2.69-.79-2.85-5.69-2.85-73.69v-72.9l48.07 75.43c50.44 79.06 56.77 88.08 64.52 92.03 9.65 5.06 34.16 1.58 46.49-6.48l3.8-2.37.32-107.84.47-108 8.38-1.58c9.96-1.9 14.55-6.48 14.55-14.39 0-5.06-.32-5.38-5.06-5.22-2.83.13-19.12 1.08-36.04 2.19z"
     id="path4" />
  <path
     style="fill:#ffffff;stroke:#483737;stroke-width:3.21337"
     d="m 535.83352,2273.7013 c -9.28391,-4.3947 -23.88502,-14.9956 -32.4469,-23.5575 l -15.56706,-15.567 -2.11588,-616.8064 c -1.16374,-339.2435 -0.87268,-677.53904 0.6468,-751.76783 l 2.76269,-134.96144 8.39668,-16.55317 c 4.61817,-9.10425 12.02455,-19.40686 16.45861,-22.8947 17.61199,-13.85359 60.8307,-17.27291 679.81174,-53.78441 165.2474,-9.74737 408.178,-24.31034 539.8458,-32.36216 266.0146,-16.26749 387.1069,-20.58437 405.6592,-14.46157 16.4231,5.42011 33.2025,25.32858 40.0671,47.53884 5.4558,17.65202 5.715,51.60024 5.0354,659.67654 -0.6942,621.1752 -3.2171,823.9202 -10.5678,849.2202 -4.325,14.8863 -18.967,32.0794 -32.9192,38.6548 -15.4262,7.2701 -83.5315,13.0012 -368.7143,31.0279 -441.8205,27.9278 -914.80449,53.2995 -1169.66583,62.7429 -48.30084,1.7897 -50.31772,1.6039 -66.68705,-6.145 z m 328.57651,-210.6759 c 213.48367,-12.8294 258.08817,-17.5589 286.28057,-30.3547 8.9968,-4.0834 19.2916,-11.5864 22.8773,-16.6735 11.3493,-16.1009 20.6302,-36.8169 19.6001,-43.7497 -1.2415,-8.3561 -15.804,-13.5097 -83.6734,-29.6117 -36.1648,-8.58 -50.7922,-13.4059 -52.3678,-17.2771 -5.7523,-14.1335 -7.9842,-139.3927 -7.1995,-404.067 l 0.858,-289.441 62.5613,98.2456 c 420.8216,660.8547 439.2488,687.8598 482.7991,707.5396 15.6028,7.0507 20.8857,7.6477 65.1795,7.3655 41.3076,-0.2631 52.7717,-1.5233 80.1656,-8.8126 29.4051,-7.8245 74.6513,-27.5516 90.1429,-39.3019 6.3684,-4.8304 6.4413,-9.5945 8.0334,-525.035 0.8837,-286.0883 2.3716,-520.92513 3.3065,-521.85977 0.9348,-0.93461 13.226,-4.0053 27.3136,-6.82375 45.0643,-9.01581 64.8233,-19.92677 75.308,-41.58533 9.0561,-18.70729 9.2225,-51.59214 0.2854,-56.37517 -4.4298,-2.37074 -36.5387,-1.46368 -110.0579,3.10908 -169.8595,10.56493 -235.8056,17.09188 -251.6183,24.90367 -23.1649,11.44398 -40.296,36.45479 -41.2139,60.17082 -0.9217,23.81584 6.2802,27.46353 70.1342,35.5224 21.2083,2.67664 41.9682,5.62661 46.1332,6.55549 l 7.5728,1.68889 -1.1785,313.95947 c -0.6481,172.6777 -2.433,315.9276 -3.9663,318.3332 -3.0951,4.8556 -11.8798,-8.1721 -225.0472,-333.744 -72.3231,-110.4595 -158.8782,-242.4084 -192.3446,-293.21975 l -60.8481,-92.38432 h -27.3151 c -30.9193,0 -149.8903,7.30955 -238.70031,14.66569 -74.01748,6.13087 -119.31126,12.64334 -131.39571,18.89247 -23.56714,12.18702 -50.47033,64.10845 -43.91684,84.75661 3.79868,11.9686 25.35087,17.475 74.89481,19.1352 l 45.79049,1.5343 v 468.1741 468.1742 l -42.78419,13.3447 c -23.53131,7.3395 -47.75206,16.654 -53.82391,20.6987 -24.95304,16.6224 -34.90979,69.947 -13.05628,69.9246 2.87646,0 52.94844,-2.8731 111.27107,-6.378 z"
     id="path78"
     transform="matrix(0.20665815,0,0,0.20665815,13.38,-2.2726905)" />
  <path
     style="fill:#ffffff;stroke:#483737;stroke-width:3.21337"
     d="m 480.2369,496.62439 c -31.94565,-11.769 -88.40901,-51.64242 -181.37957,-128.08703 -64.96925,-53.42066 -92.57674,-79.81937 -90.07287,-86.1291 7.10255,-17.89831 63.99059,-23.87858 576.89806,-60.64558 99.8554,-7.15799 285.66838,-20.91427 412.91778,-30.56952 295.7758,-22.44246 373.3786,-26.35746 426.0737,-21.49504 57.463,5.30236 70.3638,10.6534 143.7692,59.63283 145.1461,96.84817 245.686,172.65968 240.3749,181.25324 -1.0314,1.66882 -10.9535,3.95387 -22.0491,5.07788 -90.1208,9.12945 -610.476,42.10687 -1045.23815,66.2418 C 569.36044,502.56414 502.17897,504.708 480.2369,496.62439 Z"
     id="path80"
     transform="matrix(0.20665815,0,0,0.20665815,13.38,-2.2726905)" />
</svg>
