<?xml version="1.0" encoding="UTF-8" standalone="no"?>
<svg
   xmlns:dc="http://purl.org/dc/elements/1.1/"
   xmlns:cc="http://creativecommons.org/ns#"
   xmlns:rdf="http://www.w3.org/1999/02/22-rdf-syntax-ns#"
   xmlns:svg="http://www.w3.org/2000/svg"
   xmlns="http://www.w3.org/2000/svg"
   xmlns:sodipodi="http://sodipodi.sourceforge.net/DTD/sodipodi-0.dtd"
   xmlns:inkscape="http://www.inkscape.org/namespaces/inkscape"
   role="img"
   viewBox="0 0 24 24"
   version="1.1"
   id="svg6"
   sodipodi:docname="unity.svg"
   inkscape:version="1.0.1 (3bc2e813f5, 2020-09-07)">
  <metadata
     id="metadata12">
    <rdf:RDF>
      <cc:Work
         rdf:about="">
        <dc:format>image/svg+xml</dc:format>
        <dc:type
           rdf:resource="http://purl.org/dc/dcmitype/StillImage" />
      </cc:Work>
    </rdf:RDF>
  </metadata>
  <defs
     id="defs10" />
  <sodipodi:namedview
     pagecolor="#ffffff"
     bordercolor="#666666"
     borderopacity="1"
     objecttolerance="10"
     gridtolerance="10"
     guidetolerance="10"
     inkscape:pageopacity="0"
     inkscape:pageshadow="2"
     inkscape:window-width="1517"
     inkscape:window-height="735"
     id="namedview8"
     showgrid="false"
     inkscape:zoom="32.416667"
     inkscape:cx="8.7609254"
     inkscape:cy="11.984576"
     inkscape:window-x="334"
     inkscape:window-y="202"
     inkscape:window-maximized="0"
     inkscape:current-layer="svg6" />
  <title
     id="title2" />
  <path
     d="M19.9 19.2L15.6 12l4.3-7.2L22 12l-2.1 7.2zm-9.5-.7L5 13.2h8.6l4.3 7.2-7.5-1.9zm0-13.1l7.5-1.9-4.3 7.2H4.9c0 .1 5.5-5.3 5.5-5.3zm11-5.4l-9.8 2.5L10.1 5H7.2L0 12l7.2 7h2.9l1.4 2.5 9.8 2.5 2.6-9.5-1.4-2.5L24 9.5 21.4 0z"
     id="path4" />
  <path
     style="fill:#ffffff;stroke:#483737;stroke-width:0.0308483"
     d="m 5.0217103,13.210194 c 1.7918977,1.760311 3.5917441,3.51292 5.3755627,5.280969 2.474825,0.623839 4.946224,1.2691 7.424325,1.875181 0.05561,-0.07676 -0.09166,-0.178318 -0.104985,-0.253869 -1.379245,-2.305678 -2.75044,-4.620176 -4.136299,-6.919392 -2.850538,0 -5.7010764,0 -8.5516146,0 z"
     id="path26" />
  <path
     style="fill:#ffffff;stroke:#483737;stroke-width:0.0308483"
     d="m 17.821839,3.5415328 c -2.471974,0.6009599 -4.935844,1.2374144 -7.402093,1.8604193 -1.8140716,1.7574675 -3.6068422,3.537952 -5.4499115,5.2644599 0.3179088,0.03998 0.687166,0.0045 1.0248015,0.0155 2.5385307,-0.0079 5.080514,-0.0027 7.616888,-0.0187 1.40872,-2.3694859 2.838536,-4.7267486 4.226101,-7.1085516 l -0.0103,-0.013737 z"
     id="path28" />
  <path
     style="fill:#ffffff;stroke:#483737;stroke-width:0.0308483"
     d="m 19.897474,4.8576478 c -1.45143,2.364325 -2.855651,4.7582971 -4.28364,7.1372312 1.400774,2.362265 2.809076,4.727342 4.236222,7.076558 0.0829,0.19416 0.104194,-0.140593 0.140674,-0.200881 0.666359,-2.291201 1.336924,-4.581792 2.000815,-6.873327 C 21.298662,9.6191331 20.605841,7.24102 19.913078,4.8628896 l -0.0147,-0.00578 z"
     id="path30" />
</svg>
