<svg xmlns="http://www.w3.org/2000/svg" enable-background="new 0 0 512 512" version="1" viewBox="0 0 512 512"><path fill="#BF80FF" d="M93.867,12.801h324.267c51.733,0,93.867,42.133,93.867,93.867v311.467
			c0,51.733-42.133,93.867-93.867,93.867H93.867c-51.733,0-93.867-42.133-93.867-93.867V106.668
			C0.001,54.934,42.134,12.801,93.867,12.801"/><path fill="#260D40" d="M98.133,34.134h315.733c42.667,0,76.8,34.133,76.8,76.8v302.933c0,42.667-34.133,76.8-76.8,76.8H98.133
			c-42.667,0-76.8-34.133-76.8-76.8V110.934C21.333,68.268,55.466,34.134,98.133,34.134"/><g><path fill="#FFF" d="M140.407,375.103c0,1.743-0.654,2.397-2.397,2.397h-32.03c-2.179,0-2.833-0.654-2.833-2.833V150.889
				c0-1.743,0.654-3.051,2.179-3.051c16.996-0.654,32.902-1.089,58.614-1.089c49.68,0,79.531,22.007,79.531,65.15
				c0,35.517-23.533,55.127-43.361,62.536c10.023,17.432,44.015,79.096,55.127,100.013c1.089,1.743,1.089,3.051-1.307,3.051h-36.17
				c-2.397,0-3.486-0.654-4.14-1.743c-8.062-13.945-32.902-61.882-49.026-90.862h-24.186V375.103z M161.543,251.339
				c25.276,0,43.797-10.023,43.797-36.17c0-25.276-16.56-36.824-42.271-36.824c-8.934,0-17.649,0.436-22.661,0.654v72.341H161.543z
				 M409.925,340.039V208.213c0-1.743-0.218-2.833-2.397-2.833h-32.902c-1.743,0-2.397,1.089-2.397,2.833v132.48
				c-5.229,2.179-12.856,3.922-21.572,3.922c-21.354,0-29.416-11.113-29.416-31.595V208.213c0-1.743-0.654-2.833-2.397-2.833h-33.12
				c-1.743,0-2.397,1.089-2.397,2.833v109.165c0,48.59,30.287,60.792,61.882,60.792c25.712,0,45.976-7.191,64.279-14.163
				c1.307-0.218,1.743-1.089,1.743-2.397c-0.654-11.766-1.089-19.175-1.089-21.572H409.925z"/><path fill="#BF80FF" d="M140.407,375.103c0,1.743-0.654,2.397-2.397,2.397h-32.03c-2.179,0-2.833-0.654-2.833-2.833V150.889
				c0-1.743,0.654-3.051,2.179-3.051c16.996-0.654,32.902-1.089,58.614-1.089c49.68,0,79.531,22.007,79.531,65.15
				c0,35.517-23.533,55.127-43.361,62.536c10.023,17.432,44.015,79.096,55.127,100.013c1.089,1.743,1.089,3.051-1.307,3.051h-36.17
				c-2.397,0-3.486-0.654-4.14-1.743c-8.062-13.945-32.902-61.882-49.026-90.862h-24.186V375.103z M161.543,251.339
				c25.276,0,43.797-10.023,43.797-36.17c0-25.276-16.56-36.824-42.271-36.824c-8.934,0-17.649,0.436-22.661,0.654v72.341H161.543z
				 M409.925,340.039V208.213c0-1.743-0.218-2.833-2.397-2.833h-32.902c-1.743,0-2.397,1.089-2.397,2.833v132.48
				c-5.229,2.179-12.856,3.922-21.572,3.922c-21.354,0-29.416-11.113-29.416-31.595V208.213c0-1.743-0.654-2.833-2.397-2.833h-33.12
				c-1.743,0-2.397,1.089-2.397,2.833v109.165c0,48.59,30.287,60.792,61.882,60.792c25.712,0,45.976-7.191,64.279-14.163
				c1.307-0.218,1.743-1.089,1.743-2.397c-0.654-11.766-1.089-19.175-1.089-21.572H409.925z" opacity=".15"/></g></svg>