<?xml version="1.0" encoding="utf-8"?>
<!-- Generator: Adobe Illustrator 24.1.0, SVG Export Plug-In . SVG Version: 6.00 Build 0)  -->
<svg version="1.1" id="Layer_1" xmlns="http://www.w3.org/2000/svg" xmlns:xlink="http://www.w3.org/1999/xlink" x="0px" y="0px"
	 viewBox="0 0 240 234" style="enable-background:new 0 0 240 234;" xml:space="preserve">
<style type="text/css">
	.st0{fill:#001E36;}
	.st1{fill:#31A8FF;}
</style>
<g id="Layer_2_1_">
	<g id="Surfaces">
		<g id="Photo_Surface">
			<g id="Outline_no_shadow">
				<path class="st0" d="M42.5,0h155C221,0,240,19,240,42.5v149c0,23.5-19,42.5-42.5,42.5h-155C19,234,0,215,0,191.5v-149
					C0,19,19,0,42.5,0z"/>
			</g>
		</g>
	</g>
	<g id="Outlined_Mnemonics_Logos">
		<g id="Fr">
			<path class="st1" d="M84.7,124.7v39.4c0.1,0.6-0.3,1.2-1,1.3c-0.1,0-0.2,0-0.3,0H63.6c-0.3,0-0.7-0.1-0.9-0.3
				c-0.2-0.3-0.3-0.7-0.2-1.1V61.1c0-1.5,0.4-2.3,1.1-2.3h63.8c0.4,0,0.8,0,1.1,0.2c0.2,0.2,0.4,0.9,0.5,2.2l1.8,17.5
				c0.1,0.3,0,0.7-0.2,0.9c-0.3,0.3-0.7,0.4-1,0.4H84.7v24.5h40.2c1,0,1.4,0.4,1.4,1.1v17.7c0.1,0.6-0.3,1.2-1,1.3
				c-0.1,0-0.2,0-0.3,0L84.7,124.7z"/>
			<path class="st1" d="M140.5,85.4h17.5c1,0,1.8,0.7,2.1,1.6c0.4,0.7,0.7,1.5,0.8,2.3c0.2,1,0.4,2.1,0.5,3.1
				c0.1,1.1,0.2,2.3,0.2,3.6c3-3.5,6.6-6.4,10.7-8.6c4.6-2.5,9.7-3.7,14.9-3.6c0.7-0.1,1.3,0.4,1.4,1.1c0,0.1,0,0.2,0,0.4v19.5
				c0,0.8-0.5,1.1-1.6,1.1c-6.5-0.4-13,0.8-18.9,3.4c-2,0.9-3.9,2.1-5.4,3.7v51c0,1-0.4,1.4-1.3,1.4H142c-0.8,0.1-1.5-0.4-1.6-1.2
				c0-0.1,0-0.3,0-0.4v-55.4c0-2.4,0-4.9-0.1-7.5c-0.1-2.6-0.1-5.2-0.2-7.8c-0.1-2.2-0.3-4.4-0.6-6.6c-0.1-0.5,0.2-1,0.7-1.1
				C140.2,85.3,140.4,85.3,140.5,85.4L140.5,85.4z"/>
		</g>
	</g>
</g>
</svg>
