<svg xmlns="http://www.w3.org/2000/svg" width="310" height="310" viewBox="0 0 310 310"><g data-name="Adobe SpeedGrade CC" transform="translate(-67.5 -67.5)"><rect width="310" height="310" fill="#00eae4" transform="translate(67.5 67.5)"/><rect width="282.737" height="282.737" fill="#002625" transform="translate(81.174 81.174)"/><path fill="#00eae4" d="M146.774,289.158c-1.1-.849-1.274-1.7-1.274-3.227v-20.3c0-1.1.764-1.7,1.444-1.1,10.107,8.323,22,10.107,34.992,10.107,14.268,0,19.025-8.069,19.025-16.392,0-8.918.085-14.268-19.789-24.121-25.14-12.4-34.822-24.46-34.822-44.759,0-20.723,14.523-39.663,42.211-39.663,12.995,0,22.507,0,30.066,5.181a2.907,2.907,0,0,1,1.1,2.548v19.449c0,.849-.764,1.529-1.614.849-7.9-5.521-19.11-7.3-29.9-7.3-16.732,0-18.6,12.74-18.6,18.515,0,7.644,2.208,13.419,20.553,22.422,29.386,14.1,35.162,26.244,35.162,44.334,0,24.545-15.882,40.512-42.466,40.512C169.705,296.292,157.136,296.292,146.774,289.158Z" transform="translate(-11.753 -12.386)"/><path fill="#00eae4" d="M309.095,194.485c-22.507.934-50.195,9.937-50.195,51.469,0,14.268,4.332,30.915,15.2,41.022,10.871,10.022,27.942,8.833,41.7,7.134.425-.085.849-.085,1.359-.17,0,0-1.274,23.526-25.14,23.526-18.855,0-28.962-8.238-28.962-8.238v22.932s9.173,6.2,30.066,6.2,46.288-9.937,47.647-41.7V200.515S331.6,193.55,309.095,194.485Zm7.3,80.6H301.536S281.407,272.452,282,243.15c.595-29.556,26.329-32.7,34.4-27.6Z" transform="translate(-28.841 -19.122)"/></g></svg>