<?xml version="1.0" encoding="utf-8"?>
<!-- Generator: Adobe Illustrator 22.0.1, SVG Export Plug-In . SVG Version: 6.00 Build 0)  -->
<svg version="1.1" id="pl_x5F_cc_x5F_app_x5F_RGB.svg"
	 xmlns="http://www.w3.org/2000/svg" xmlns:xlink="http://www.w3.org/1999/xlink" x="0px" y="0px" width="240px" height="234px"
	 viewBox="0 0 240 234" style="enable-background:new 0 0 240 234;" xml:space="preserve">
<rect style="fill:#00DBFF;" width="240" height="234"/>
<rect x="10" y="10" style="fill:#002026;" width="220" height="214"/>
<path style="fill:#00DBFF;" d="M65.5,54.7c0-0.7,0.2-1.2,1-1.2c6.4-0.3,15.7-0.5,25.6-0.5c27.7,0,39.8,15.2,39.8,34.7
	c0,25.4-18.3,36.3-40.9,36.3c-3.8,0-5.1-0.2-7.8-0.2v38.5c0,0.8-0.3,1.2-1.2,1.2H66.7c-0.8,0-1.2-0.3-1.2-1.2V54.7z M83.3,107.8
	c2.3,0.2,4.1,0.2,8.1,0.2c11.7,0,22.6-4.1,22.6-20c0-12.7-7.7-19.1-21.1-19.1c-4,0-7.8,0.2-9.6,0.3V107.8z M149.5,54.5
	c0-0.7,0.2-1,1.2-1h15.5c1,0,1.3,0.3,1.3,1v89.8c0,4,1.5,5.4,4.5,5.4c1.3,0,1.9-0.2,2.7-0.3c0.7,0,0.8,0.2,0.8,1v11.7
	c0,1-0.2,1.3-0.8,1.6c-2.1,0.8-5.2,1.2-8.7,1.2c-8.7,0-16.5-3.3-16.5-19.1L149.5,54.5L149.5,54.5z"/>
</svg>
