<svg xmlns="http://www.w3.org/2000/svg" enable-background="new 0 0 512 512" version="1" viewBox="0 0 512 512"><path fill="#FBB500" d="M93.867,12.801h324.267c51.733,0,93.867,42.133,93.867,93.867v311.467
			c0,51.733-42.133,93.867-93.867,93.867H93.867c-51.733,0-93.867-42.133-93.867-93.867V106.668
			C0.001,54.934,42.134,12.801,93.867,12.801"/><path fill="#261C00" d="M98.133,34.134h315.733c42.667,0,76.8,34.133,76.8,76.8v302.933c0,42.667-34.133,76.8-76.8,76.8H98.133
			c-42.667,0-76.8-34.133-76.8-76.8V110.934C21.333,68.268,55.466,34.134,98.133,34.134"/><g><path fill="#FFF" d="M127.551,150.984c0-1.714,0.429-2.357,1.714-2.785c9.642-0.429,36.424-1.071,57.422-1.071
			c63.85,0,75.205,37.281,75.205,59.779c0,25.497-12.427,40.067-21.426,47.352c12.856,6.214,31.711,22.069,31.711,54.851
			c0,43.495-34.924,70.063-88.061,69.635c-22.712,0-43.281-0.428-54.208-0.643c-1.714-0.428-2.357-1.286-2.357-2.785
			C127.551,375.101,127.551,150.984,127.551,150.984z M163.975,241.831h20.998c10.07,0,22.283-0.643,27.211,0.429
			c7.285-6.214,13.07-15.427,13.07-30.425c0-21.426-15.212-32.139-39.638-32.139c-8.356,0-16.284,0.429-21.64,0.643V241.831z
			 M163.975,345.961c6.214,0.428,11.999,0,19.712,0c27.211,0,49.923-10.285,49.923-36.639c0-16.284-8.356-27.64-25.283-32.782
			c-5.785-1.714-12.856-2.785-20.355-2.785h-23.997V345.961z M305.387,242.688c0-2.357,0-8.57-1.071-20.355
			c0-1.714,0.643-2.143,1.928-2.785c12.856-5.142,41.995-14.57,75.848-14.57c1.714,0,2.357,0.429,2.357,2.143v30.425
			c0,1.714,0,2.143-1.714,2.143c-13.07-0.643-31.711,1.071-38.995,4.071v132.841c0,1.714-0.643,2.357-2.357,2.357h-33.639
			c-1.714,0-2.357-0.643-2.357-2.357L305.387,242.688L305.387,242.688z"/><path fill="#FBB500" d="M127.551,150.984c0-1.714,0.429-2.357,1.714-2.785c9.642-0.429,36.424-1.071,57.422-1.071
				c63.85,0,75.205,37.281,75.205,59.779c0,25.497-12.427,40.067-21.426,47.352c12.856,6.214,31.711,22.069,31.711,54.851
				c0,43.495-34.924,70.063-88.061,69.635c-22.712,0-43.281-0.428-54.208-0.643c-1.714-0.428-2.357-1.286-2.357-2.785
				C127.551,375.101,127.551,150.984,127.551,150.984z M163.975,241.831h20.998c10.07,0,22.283-0.643,27.211,0.429
				c7.285-6.214,13.07-15.427,13.07-30.425c0-21.426-15.212-32.139-39.638-32.139c-8.356,0-16.284,0.429-21.64,0.643V241.831z
				 M163.975,345.961c6.214,0.428,11.999,0,19.712,0c27.211,0,49.923-10.285,49.923-36.639c0-16.284-8.356-27.64-25.283-32.782
				c-5.785-1.714-12.856-2.785-20.355-2.785h-23.997V345.961z M305.387,242.688c0-2.357,0-8.57-1.071-20.355
				c0-1.714,0.643-2.143,1.928-2.785c12.856-5.142,41.995-14.57,75.848-14.57c1.714,0,2.357,0.429,2.357,2.143v30.425
				c0,1.714,0,2.143-1.714,2.143c-13.07-0.643-31.711,1.071-38.995,4.071v132.841c0,1.714-0.643,2.357-2.357,2.357h-33.639
				c-1.714,0-2.357-0.643-2.357-2.357L305.387,242.688L305.387,242.688z" opacity=".15"/></g></svg>