<svg xmlns="http://www.w3.org/2000/svg" enable-background="new 0 0 512 512" version="1" viewBox="0 0 512 512"><path fill="#FEAB1A" d="M93.867,12.8h326.016C470.547,12.8,512,54.253,512,104.918v314.965C512,470.547,470.547,512,419.883,512
			H92.118C41.453,512,0,470.547,0,419.882V106.667C0,54.933,42.134,12.8,93.867,12.8"/><path fill="#120D01" d="M98.133,34.133h317.482c41.45,0,75.051,33.601,75.051,75.051v306.431c0,41.45-33.602,75.051-75.051,75.051
			H96.384c-41.45,0-75.051-33.601-75.051-75.051V110.933C21.333,68.267,55.466,34.133,98.133,34.133"/><g><path fill="#FFF" d="M431.553,266.356v104.346c0,1.994-0.583,2.593-2.338,2.593H398.51c-1.949,0-2.532-0.999-2.532-2.593
				V268.954c0-19.189-7.77-29.983-27.013-29.983c-8.363,0-15.744,1.599-21.58,3.598v128.328c0,1.399-0.583,2.398-1.939,2.398h-1.255
				h-30.043h-0.662c-1.949,0-2.532-0.999-2.532-2.593V268.954c0-19.189-7.77-29.983-27.013-29.983
				c-8.363,0-15.744,1.599-21.58,3.598v128.328c0,1.399-0.583,2.398-1.939,2.398h-31.298c-1.555,0-2.328-0.599-2.328-2.398V242.969
				c0-1.999,0-8.995-0.972-20.588c0-1.399,0.389-1.599,1.55-2.399c16.526-6.396,38.679-13.193,61.037-13.193
				c12.251,0,28.015,3.624,38.55,10.396c14.611-4.851,29.045-10.396,46.473-10.396C400.838,206.79,431.553,217.784,431.553,266.356z
				 M117.123,279.872h72.631c1.67,0,2.34-0.333,2.34-2.34V251.59c0-2.008-0.671-2.34-2.34-2.34l-72.374,0.172v-64.878h80.555
				c2.179-0.171,3.183-0.842,2.845-2.85l-3.339-27.854c-0.333-1.67-0.666-2.335-2.673-2.335H82.782c-1.67,0-2.335,0.666-2.335,2.119
				V370.4c0,2.23,0.666,2.895,2.335,2.895h32c1.67,0,2.34-0.666,2.34-2.668V279.872z"/><path fill="#FDAA17" d="M431.553,266.356v104.346c0,1.994-0.583,2.593-2.338,2.593H398.51c-1.949,0-2.532-0.999-2.532-2.593
				V268.954c0-19.189-7.77-29.983-27.013-29.983c-8.363,0-15.744,1.599-21.58,3.598v128.328c0,1.399-0.583,2.398-1.939,2.398h-1.255
				h-30.043h-0.662c-1.949,0-2.532-0.999-2.532-2.593V268.954c0-19.189-7.77-29.983-27.013-29.983
				c-8.363,0-15.744,1.599-21.58,3.598v128.328c0,1.399-0.583,2.398-1.939,2.398h-31.298c-1.555,0-2.328-0.599-2.328-2.398V242.969
				c0-1.999,0-8.995-0.972-20.588c0-1.399,0.389-1.599,1.55-2.399c16.526-6.396,38.679-13.193,61.037-13.193
				c12.251,0,28.015,3.624,38.55,10.396c14.611-4.851,29.045-10.396,46.473-10.396C400.838,206.79,431.553,217.784,431.553,266.356z
				 M117.123,279.872h72.631c1.67,0,2.34-0.333,2.34-2.34V251.59c0-2.008-0.671-2.34-2.34-2.34l-72.374,0.172v-64.878h80.555
				c2.179-0.171,3.183-0.842,2.845-2.85l-3.339-27.854c-0.333-1.67-0.666-2.335-2.673-2.335H82.782c-1.67,0-2.335,0.666-2.335,2.119
				V370.4c0,2.23,0.666,2.895,2.335,2.895h32c1.67,0,2.34-0.666,2.34-2.668V279.872z" opacity=".16"/></g></svg>