<?xml version="1.0" encoding="UTF-8" standalone="no"?>
<svg
   xmlns:dc="http://purl.org/dc/elements/1.1/"
   xmlns:cc="http://creativecommons.org/ns#"
   xmlns:rdf="http://www.w3.org/1999/02/22-rdf-syntax-ns#"
   xmlns:svg="http://www.w3.org/2000/svg"
   xmlns="http://www.w3.org/2000/svg"
   xmlns:sodipodi="http://sodipodi.sourceforge.net/DTD/sodipodi-0.dtd"
   xmlns:inkscape="http://www.inkscape.org/namespaces/inkscape"
   width="64"
   height="64"
   version="1.1"
   viewBox="0 0 64 64"
   id="svg26"
   sodipodi:docname="github-desktop.svg"
   inkscape:version="1.0.1 (3bc2e813f5, 2020-09-07)">
  <metadata
     id="metadata30">
    <rdf:RDF>
      <cc:Work
         rdf:about="">
        <dc:format>image/svg+xml</dc:format>
        <dc:type
           rdf:resource="http://purl.org/dc/dcmitype/StillImage" />
        <dc:title></dc:title>
      </cc:Work>
    </rdf:RDF>
  </metadata>
  <sodipodi:namedview
     pagecolor="#ffffff"
     bordercolor="#666666"
     borderopacity="1"
     objecttolerance="10"
     gridtolerance="10"
     guidetolerance="10"
     inkscape:pageopacity="0"
     inkscape:pageshadow="2"
     inkscape:window-width="1701"
     inkscape:window-height="888"
     id="namedview28"
     showgrid="false"
     inkscape:zoom="12.15625"
     inkscape:cx="32"
     inkscape:cy="22.128535"
     inkscape:window-x="0"
     inkscape:window-y="28"
     inkscape:window-maximized="0"
     inkscape:current-layer="layer1" />
  <defs
     id="defs13">
    <linearGradient
       id="a"
       x1="68.113"
       x2="68.113"
       y1="119.96"
       y2="8.7812"
       gradientTransform="matrix(.49622 0 0 .49622 -1.7992 -2.3573)"
       gradientUnits="userSpaceOnUse">
      <stop
         stop-color="#8034a9"
         offset="0"
         id="stop2" />
      <stop
         stop-color="#d26ef7"
         offset="1"
         id="stop4" />
    </linearGradient>
    <filter
       id="c"
       x="-.036"
       y="-.036"
       width="1.072"
       height="1.072"
       color-interpolation-filters="sRGB">
      <feGaussianBlur
         stdDeviation="1.8137109"
         id="feGaussianBlur7" />
    </filter>
    <filter
       id="b"
       x="-.064998"
       y="-.055716"
       width="1.13"
       height="1.1114"
       color-interpolation-filters="sRGB">
      <feGaussianBlur
         stdDeviation="0.97496488"
         id="feGaussianBlur10" />
    </filter>
    <linearGradient
       id="a-3"
       x1="68.112999"
       x2="68.112999"
       y1="119.96"
       y2="8.7812004"
       gradientTransform="matrix(0.49976212,0,0,0.50212541,-2.0566934,-2.8087678)"
       gradientUnits="userSpaceOnUse">
      <stop
         stop-color="#8034a9"
         offset="0"
         id="stop2-6" />
      <stop
         stop-color="#d26ef7"
         offset="1"
         id="stop4-7" />
    </linearGradient>
  </defs>
  <filter
     id="i"
     x="-.069933"
     y="-.054406"
     width="1.1399"
     height="1.1088"
     color-interpolation-filters="sRGB">
    <feGaussianBlur
       stdDeviation="1.9764485"
       id="feGaussianBlur15" />
  </filter>
  <path
     transform="matrix(0.5196932,0,0,0.52671428,-3.3566606,34.021701)"
     d="m 68.113,-63.752 c -33.39,-2.97e-4 -60.457,27.067 -60.457,60.457 -2.96e-4,33.39 27.067,60.457 60.457,60.457 33.39,3e-4 60.457,-27.067 60.457,-60.457 3e-4,-33.39 -27.067,-60.457 -60.457,-60.457 z"
     filter="url(#c)"
     opacity="0.25"
     stroke-width="2.0152"
     style="paint-order:fill markers stroke"
     id="path18" />
  <path
     transform="matrix(1.0715 0 0 1.0715 -63.305 -2.8678)"
     d="m103.77 18.547c-0.85213-0.0398-3.2532 0.2448-7.0059 2.8555-2.0994-0.63304-4.4958-0.86737-6.9941-0.86133-2.2854 0.0055-4.6554 0.19277-6.959 0.86133-3.7539-2.6105-5.6724-2.8937-6.5254-2.8535-0.28439 0.0134-0.42188 0.05664-0.42188 0.05664-1.4271 3.7021-0.5242 6.4409-0.25391 7.1211-1.6765 1.8792-2.6602 4.2789-2.6602 7.2148 0 10.307 6.6786 12.616 12.498 13.295-0.74814 0.67208-1.2189 2.0617-1.457 3.7988-1.4931 0.68858-5.4982 2.3738-7.8359-1.7363 0 0-1.383-2.5836-4.0137-2.7734 0 0-2.5574-0.03303-0.17773 1.6348 0 0 1.7179 0.82775 2.9102 3.9355 0 0 1.7706 4.7304 9.0605 3.1055 0.0073 1.2621 0.01333 3.6146 0.01953 5.8906 1.621 0.28979 3.2893 0.44922 4.9961 0.44922 2.7819 0 5.4633-0.40752 7.9961-1.1562 0.0075-2.775 0.01563-6.0522 0.01563-8.1875 0-2.5083-1.037-4.1499-1.9766-4.9805 5.837-0.66546 11.965-2.9417 11.965-13.275 0-2.9359-0.81648-5.3377-2.4961-7.2168 0.26869-0.68034 1.1705-3.417-0.25977-7.1191 0 0-0.13782-0.04533-0.42187-0.05859z"
     filter="url(#b)"
     opacity=".15"
     stroke-width=".93331"
     id="path22" />
  <g
     inkscape:groupmode="layer"
     id="layer1"
     inkscape:label="Layer 1">
    <ellipse
       style="fill:#1a1a1a;stroke:#ffffff;stroke-width:1.62388"
       id="path33"
       cx="32.008553"
       cy="31.977776"
       rx="30.990627"
       ry="31.090649" />
  </g>
  <g
     inkscape:groupmode="layer"
     id="layer2"
     inkscape:label="Layer 2">
    <path
       d="M 31.983774,1.6003877 C 15.2965,1.6002385 1.7696263,15.191228 1.7696263,31.957413 1.7694783,48.723598 15.2965,62.314438 31.983774,62.314438 48.671048,62.314589 62.197923,48.723598 62.197923,31.957413 62.198073,15.191228 48.671048,1.6003877 31.983774,1.6003877 Z"
       fill="url(#a)"
       stroke-width="1.00949"
       style="fill:url(#a-3);paint-order:fill markers stroke"
       id="path20" />
  </g>
  <g
     inkscape:groupmode="layer"
     id="layer3"
     inkscape:label="Layer 3">
    <path
       d="m 46.9439,17.839411 c -0.91302,-0.04264 -3.4856,0.2623 -7.5065,3.0595 -2.2494,-0.67828 -4.8171,-0.92935 -7.4939,-0.92288 -2.4488,0.0059 -4.9881,0.20655 -7.4563,0.92288 -4.0221,-2.7971 -6.0778,-3.1005 -6.9917,-3.0574 -0.30471,0.01436 -0.45202,0.06069 -0.45202,0.06069 -1.5291,3.9666 -0.56166,6.9012 -0.27205,7.63 -1.7963,2.0134 -2.8502,4.584699 -2.8502,7.730399 0,11.044 7.1559,13.518 13.391,14.245 -0.8016,0.72011 -1.306,2.209 -1.5612,4.0703 -1.5997,0.73779 -5.8911,2.5434 -8.3959,-1.8604 0,0 -1.4819,-2.7683 -4.3005,-2.9716 0,0 -2.7401,-0.03539 -0.19044,1.7516 0,0 1.8406,0.8869 3.1181,4.2168 0,0 1.8971,5.0685 9.708,3.3274 0.0078,1.3522 0.01428,3.8729 0.02093,6.3116 1.7368,0.3105 3.5243,0.48132 5.3531,0.48132 2.9807,0 5.8537,-0.43664 8.5675,-1.2389 0.008,-2.9733 0.01675,-6.4846 0.01675,-8.7726 0,-2.6876 -1.1111,-4.4464 -2.1178,-5.3364 6.2541,-0.71301 12.82,-3.1519 12.82,-14.224 0,-3.1457 -0.87482,-5.719099 -2.6745,-7.732499 0.28789,-0.72896 1.2542,-3.6612 -0.27833,-7.6279 0,0 -0.14767,-0.04857 -0.45202,-0.06278 z"
       fill="#ffffff"
       id="path24" />
  </g>
</svg>
